#N canvas 446 431 517 312 10;
#X obj 23 18 r x;
#X obj 149 19 r y;
#X obj 23 153 osc~;
#X obj 23 121 expr 200+$f1*400;
#X obj 23 46 vsl 15 60 0 1 0 0 empty empty empty 0 -9 0 10 -262144
-1 -1 2100 1;
#X obj 149 45 vsl 15 60 0 1 0 0 empty empty empty 0 -9 0 10 -262144
-1 -1 2800 1;
#X obj 23 215 dac~;
#X obj 24 183 *~;
#X obj 149 121 expr 1-$f1;
#X obj 288 21 r record;
#X obj 288 47 select start stop;
#X msg 288 117 start;
#X msg 337 117 stop;
#X obj 288 206 writesf~;
#X obj 288 86 t b b;
#X msg 315 178 open recording.wav;
#X connect 0 0 4 0;
#X connect 1 0 5 0;
#X connect 2 0 7 0;
#X connect 3 0 2 0;
#X connect 4 0 3 0;
#X connect 5 0 8 0;
#X connect 7 0 6 0;
#X connect 7 0 6 1;
#X connect 7 0 13 0;
#X connect 8 0 7 1;
#X connect 9 0 10 0;
#X connect 10 0 14 0;
#X connect 10 1 12 0;
#X connect 11 0 13 0;
#X connect 12 0 13 0;
#X connect 14 0 11 0;
#X connect 14 1 15 0;
#X connect 15 0 13 0;
