#N canvas 0 0 1362 695 10;
#X declare -lib mrpeach;
#X obj 28 -103 import mrpeach;
#X obj 23 -57 udpreceive 9000;
#X obj 24 -10 unpackOSC;
#X obj 22 19 pipelist;
#X obj 23 54 routeOSC /touch;
#X obj 23 99 unpack;
#X floatatom 20 142 5 0 0 0 - - -;
#X floatatom 71 141 5 0 0 0 - - -;
#X obj 127 53 routeOSC /acc;
#X obj 125 96 unpack f f f;
#X floatatom 125 134 5 0 0 0 - - -;
#X floatatom 166 137 5 0 0 0 - - -;
#X floatatom 207 137 5 0 0 0 - - -;
#N canvas 0 0 450 300 (subpatch) 0;
#X array accx 100 float 0;
#X coords 0 15 99 -15 200 140 1 0 0;
#X restore 439 -12 graph;
#X obj 121 243 tabwrite accx;
#X obj 173 194 f;
#X obj 204 194 + 1;
#X obj 175 220 mod 100;
#X obj 164 168 bng 15 250 50 0 empty empty empty 17 7 0 10 -262144
-1 -1;
#N canvas 0 0 450 300 (subpatch) 0;
#X array accy 100 float 0;
#X coords 0 15 99 -15 200 140 1 0 0;
#X restore 436 145 graph;
#X obj 268 194 f;
#X obj 299 194 + 1;
#X obj 270 220 mod 100;
#X obj 259 168 bng 15 250 50 0 empty empty empty 17 7 0 10 -262144
-1 -1;
#X obj 216 243 tabwrite accy;
#N canvas 0 0 450 300 (subpatch) 0;
#X array accz 100 float 0;
#X coords 0 15 99 -15 200 140 1 0 0;
#X restore 437 304 graph;
#X obj 370 193 f;
#X obj 401 193 + 1;
#X obj 372 219 mod 100;
#X obj 361 167 bng 15 250 50 0 empty empty empty 17 7 0 10 -262144
-1 -1;
#X obj 318 242 tabwrite accz;
#X obj 270 63 routeOSC /test;
#X floatatom 270 124 5 0 0 0 - - -;
#X obj 270 99 unpack f f;
#X floatatom 324 129 5 0 0 0 - - -;
#X obj 307 32 print;
#X connect 1 0 2 0;
#X connect 2 0 3 0;
#X connect 2 1 3 1;
#X connect 3 0 4 0;
#X connect 3 0 8 0;
#X connect 3 0 31 0;
#X connect 3 0 35 0;
#X connect 4 0 5 0;
#X connect 5 0 6 0;
#X connect 5 1 7 0;
#X connect 8 0 9 0;
#X connect 9 0 10 0;
#X connect 9 1 11 0;
#X connect 9 2 12 0;
#X connect 10 0 14 0;
#X connect 10 0 18 0;
#X connect 11 0 23 0;
#X connect 11 0 24 0;
#X connect 12 0 29 0;
#X connect 12 0 30 0;
#X connect 15 0 16 0;
#X connect 15 0 17 0;
#X connect 16 0 15 1;
#X connect 17 0 14 1;
#X connect 18 0 15 0;
#X connect 20 0 21 0;
#X connect 20 0 22 0;
#X connect 21 0 20 1;
#X connect 22 0 24 1;
#X connect 23 0 20 0;
#X connect 26 0 27 0;
#X connect 26 0 28 0;
#X connect 27 0 26 1;
#X connect 28 0 30 1;
#X connect 29 0 26 0;
#X connect 31 0 33 0;
#X connect 33 0 32 0;
#X connect 33 1 34 0;
