#N canvas 267 83 822 668 10;
#X declare -lib mrpeach;
#X obj 28 -103 import mrpeach;
#X obj 23 -57 udpreceive 9000;
#X obj 24 -10 unpackOSC;
#X obj 22 19 pipelist;
#X obj 23 54 routeOSC /touch;
#X obj 23 99 unpack;
#X floatatom 20 142 5 0 0 0 - - -;
#X floatatom 71 141 5 0 0 0 - - -;
#X obj 127 53 routeOSC /acc;
#X floatatom 125 134 5 0 0 0 - - -;
#X floatatom 237 141 5 0 0 0 - - -;
#X floatatom 361 146 5 0 0 0 - - -;
#X obj 270 -27 routeOSC /test;
#X floatatom 270 34 5 0 0 0 - - -;
#X obj 270 9 unpack f f;
#X floatatom 324 39 5 0 0 0 - - -;
#X obj 125 96 routeOSC /x;
#X obj 239 96 routeOSC /y;
#X obj 360 100 routeOSC /z;
#X obj 125 172 vsl 15 128 -10 10 0 0 empty empty empty 0 -9 0 10 -262144
-1 -1 6423 1;
#X obj 237 170 vsl 15 128 -10 10 0 0 empty empty empty 0 -9 0 10 -262144
-1 -1 6289 1;
#X obj 360 171 vsl 15 128 -10 10 0 0 empty empty empty 0 -9 0 10 -262144
-1 -1 12700 1;
#X obj 42 284 osc~;
#X obj 43 327 dac~;
#X connect 1 0 2 0;
#X connect 2 0 3 0;
#X connect 2 1 3 1;
#X connect 3 0 4 0;
#X connect 3 0 8 0;
#X connect 3 0 12 0;
#X connect 4 0 5 0;
#X connect 5 0 6 0;
#X connect 5 1 7 0;
#X connect 7 0 22 0;
#X connect 8 0 16 0;
#X connect 8 0 17 0;
#X connect 8 0 18 0;
#X connect 9 0 19 0;
#X connect 10 0 20 0;
#X connect 11 0 21 0;
#X connect 12 0 14 0;
#X connect 14 0 13 0;
#X connect 14 1 15 0;
#X connect 16 0 9 0;
#X connect 17 0 10 0;
#X connect 18 0 11 0;
#X connect 22 0 23 0;
#X connect 22 0 23 1;
