#N canvas 26 9 1280 695 10;
#X obj 748 284 *~;
#X obj 21 -118 vsl 15 64 0 1 0 0 empty empty empty 0 -9 0 10 -262144
-1 -1 0 1;
#X obj 21 -145 r sad;
#X obj 67 -118 vsl 15 64 0 1 0 0 empty empty empty 0 -9 0 10 -262144
-1 -1 0 1;
#X obj 67 -145 r happy;
#X obj 125 -118 vsl 15 64 0 1 0 0 empty empty empty 0 -9 0 10 -262144
-1 -1 0 1;
#X obj 125 -145 r angry;
#X obj 746 143 mtof~;
#X obj 747 181 osc~;
#X obj 746 53 metro 100;
#X obj 746 29 bng 15 250 50 0 empty empty empty 17 7 0 10 -262144 -1
-1;
#X obj 325 495 +~;
#X obj 128 497 dac~;
#X obj 128 423 +~;
#X obj 325 436 *~;
#X obj 323 372 mtof~;
#X obj 324 412 osc~;
#X obj 330 167 metro 100;
#X obj 330 122 bng 15 250 50 0 empty empty empty 17 7 0 10 -262144
-1 -1;
#X obj 330 191 f;
#X obj 361 192 + 1;
#X msg 327 270 60;
#X msg 359 272 64;
#X msg 397 273 67;
#X obj 746 91 random 40;
#X obj 746 115 + 40;
#X obj 798 181 phasor~;
#X obj 747 205 +~;
#X obj 747 230 *~ 0.5;
#X obj 797 204 *~;
#X obj 797 29 expr 100 - $f1*30;
#X msg 431 274 72;
#X obj 329 215 mod 4;
#X obj 328 238 select 0 1 2 3;
#X obj 21 334 *~;
#X obj 19 286 mtof~;
#X obj 20 310 osc~;
#X obj 22 80 bng 15 250 50 0 empty empty empty 17 7 0 10 -262144 -1
-1;
#X obj 22 128 f;
#X obj 53 129 + 1;
#X obj 21 152 mod 4;
#X obj 20 175 select 0 1 2 3;
#X msg 19 207 57;
#X msg 51 209 60;
#X msg 89 210 64;
#X msg 125 210 69;
#X obj 22 103 metro 200;
#X obj 78 72 expr 200 + $f1*300;
#X obj 218 382 vsl 15 64 0 1 0 0 empty empty empty 0 -9 0 10 -262144
-1 -1 0 1;
#X obj 262 -147 r velocity;
#X obj 22 13 loadbang;
#X obj 863 202 noise~;
#X obj 863 226 *~;
#X obj 747 255 +~;
#X obj 862 251 +~;
#X obj 21 -44 sub/lerp;
#X obj 67 -44 sub/lerp;
#X obj 125 -44 sub/lerp;
#X obj 262 -46 sub/lerp;
#X obj 928 251 *~;
#X obj 881 175 * 0.2;
#X obj 927 226 phasor~ 100;
#X obj 947 202 sub/clipscale 0.7 1 0 1;
#X obj 50 258 +;
#X obj 67 233 expr 1 - $f1;
#X obj 388 119 expr 200 - $f1*180;
#X obj 475 227 bng 15 250 50 0 empty empty empty 17 7 0 10 -262144
-1 -1;
#X obj 376 431 osc~;
#X obj 377 411 mtof~;
#X obj 325 462 +~;
#X obj 374 455 *~;
#X obj 175 317 +~;
#X obj 193 244 expr 20 - $f1*20;
#X obj 176 294 *~;
#X obj 176 271 osc~ 6;
#X obj 450 170 sub/clipscale 0.7 1 0 0.2;
#X obj 323 352 + 9;
#X obj 376 388 + 9;
#X msg 478 273 76;
#X msg 484 330 79;
#X obj 477 247 metro 300;
#X obj 492 308 delay 100;
#X obj 349 321 +;
#X obj 368 296 expr $f1-1;
#X obj 163 350 r volume;
#X obj 129 468 *~;
#X obj 262 -120 vsl 15 64 0 1 0 0 empty empty empty 0 -9 0 10 -262144
-1 -1 0 1;
#X obj 127 446 *~ 0.3;
#X obj 731 484 writesf~ 1;
#X msg 760 439 open recording.wav;
#X obj 730 328 r record;
#X obj 728 359 select start stop;
#X msg 729 418 start;
#X obj 728 390 t b b;
#X msg 790 391 open;
#X obj 941 326 r play;
#X msg 969 419 open recording.wav;
#X obj 941 447 readsf~;
#X obj 941 379 t b b;
#X msg 932 410 1;
#X connect 0 0 11 1;
#X connect 1 0 55 0;
#X connect 2 0 1 0;
#X connect 3 0 56 0;
#X connect 4 0 3 0;
#X connect 5 0 57 0;
#X connect 6 0 5 0;
#X connect 7 0 8 0;
#X connect 7 0 26 0;
#X connect 8 0 27 0;
#X connect 9 0 24 0;
#X connect 10 0 9 0;
#X connect 11 0 13 1;
#X connect 13 0 87 0;
#X connect 14 0 69 0;
#X connect 15 0 71 1;
#X connect 16 0 14 0;
#X connect 17 0 19 0;
#X connect 18 0 17 0;
#X connect 19 0 20 0;
#X connect 19 0 32 0;
#X connect 20 0 19 1;
#X connect 21 0 76 0;
#X connect 22 0 82 0;
#X connect 23 0 76 0;
#X connect 24 0 25 0;
#X connect 25 0 7 0;
#X connect 26 0 29 0;
#X connect 27 0 28 0;
#X connect 28 0 53 0;
#X connect 29 0 27 1;
#X connect 30 0 9 1;
#X connect 31 0 76 0;
#X connect 32 0 33 0;
#X connect 33 0 21 0;
#X connect 33 1 22 0;
#X connect 33 2 23 0;
#X connect 33 3 31 0;
#X connect 34 0 13 0;
#X connect 35 0 36 0;
#X connect 36 0 34 0;
#X connect 37 0 46 0;
#X connect 38 0 39 0;
#X connect 38 0 40 0;
#X connect 39 0 38 1;
#X connect 40 0 41 0;
#X connect 41 0 42 0;
#X connect 41 1 43 0;
#X connect 41 2 44 0;
#X connect 41 3 45 0;
#X connect 42 0 35 0;
#X connect 43 0 63 0;
#X connect 44 0 35 0;
#X connect 45 0 35 0;
#X connect 46 0 38 0;
#X connect 47 0 46 1;
#X connect 48 0 85 1;
#X connect 49 0 86 0;
#X connect 50 0 37 0;
#X connect 50 0 18 0;
#X connect 50 0 10 0;
#X connect 50 0 66 0;
#X connect 51 0 52 0;
#X connect 52 0 54 0;
#X connect 53 0 0 0;
#X connect 54 0 53 1;
#X connect 55 0 34 1;
#X connect 55 0 47 0;
#X connect 55 0 64 0;
#X connect 56 0 14 1;
#X connect 56 0 72 0;
#X connect 56 0 75 0;
#X connect 56 0 83 0;
#X connect 57 0 0 1;
#X connect 57 0 29 1;
#X connect 57 0 30 0;
#X connect 58 0 60 0;
#X connect 58 0 62 0;
#X connect 58 0 65 0;
#X connect 59 0 54 1;
#X connect 60 0 52 1;
#X connect 61 0 59 0;
#X connect 62 0 59 1;
#X connect 63 0 35 0;
#X connect 64 0 63 1;
#X connect 65 0 17 1;
#X connect 66 0 80 0;
#X connect 67 0 70 0;
#X connect 68 0 67 0;
#X connect 69 0 11 0;
#X connect 70 0 69 1;
#X connect 71 0 16 0;
#X connect 72 0 73 1;
#X connect 73 0 71 0;
#X connect 74 0 73 0;
#X connect 75 0 70 1;
#X connect 76 0 15 0;
#X connect 77 0 68 0;
#X connect 78 0 77 0;
#X connect 79 0 77 0;
#X connect 80 0 78 0;
#X connect 80 0 81 0;
#X connect 81 0 79 0;
#X connect 82 0 76 0;
#X connect 83 0 82 1;
#X connect 84 0 48 0;
#X connect 85 0 12 0;
#X connect 85 0 12 1;
#X connect 85 0 88 0;
#X connect 86 0 58 0;
#X connect 87 0 85 0;
#X connect 89 0 88 0;
#X connect 90 0 91 0;
#X connect 91 0 93 0;
#X connect 91 1 94 0;
#X connect 92 0 88 0;
#X connect 93 0 92 0;
#X connect 93 1 89 0;
#X connect 94 0 88 0;
#X connect 95 0 98 0;
#X connect 96 0 97 0;
#X connect 97 0 12 0;
#X connect 97 0 12 1;
#X connect 98 0 99 0;
#X connect 98 1 96 0;
#X connect 99 0 97 0;
