#N canvas 204 139 551 585 10;
#X obj 15 -61 vsl 15 64 0 1 0 0 empty empty empty 0 -9 0 10 -262144
-1 -1 0 1;
#X obj 15 -87 r sad;
#X obj 93 -60 vsl 15 64 0 1 0 0 empty empty empty 0 -9 0 10 -262144
-1 -1 0 1;
#X obj 93 -87 r happy;
#X obj 172 -61 vsl 15 64 0 1 0 0 empty empty empty 0 -9 0 10 -262144
-1 -1 0 1;
#X obj 172 -87 r angry;
#X obj 122 103 +~;
#X obj 74 412 dac~;
#X obj 74 146 +~;
#X obj 343 -62 vsl 15 64 0 1 0 0 empty empty empty 0 -9 0 10 -262144
-1 -1 0 1;
#X obj 251 -87 r velocity;
#X obj 15 14 sub/lerp;
#X obj 93 14 sub/lerp;
#X obj 172 14 sub/lerp;
#X obj 251 14 sub/lerp;
#X obj 343 -87 r volume;
#X obj 74 191 *~;
#X obj 251 -60 vsl 15 64 0 1 0 0 empty empty empty 0 -9 0 10 -262144
-1 -1 0 1;
#X obj 74 169 *~ 0.3;
#X obj 368 277 writesf~ 1;
#X msg 400 252 open recording.wav;
#X obj 368 141 r record;
#X obj 368 169 select start stop;
#X msg 368 220 start;
#X obj 368 194 t b b;
#X obj 137 256 r play;
#X msg 176 309 open recording.wav;
#X obj 137 338 readsf~;
#X obj 137 285 t b b;
#X msg 137 309 1;
#X text 128 169 divider for the three emotions;
#N canvas 28 216 551 535 sad 0;
#X obj 13 339 *~;
#X obj 13 291 mtof~;
#X obj 13 315 osc~;
#X obj 13 164 f;
#X obj 42 164 + 1;
#X obj 13 187 mod 4;
#X obj 13 210 select 0 1 2 3;
#X msg 13 234 57;
#X msg 47 234 60;
#X msg 83 234 64;
#X msg 119 234 69;
#X obj 13 139 metro 200;
#X obj 73 42 expr 200 + $f1*300;
#X obj 13 97 loadbang;
#X obj 47 258 +;
#X obj 65 73 expr 1 - $f1;
#X obj 31 9 inlet;
#X obj 13 368 outlet~;
#X text 209 43 arpeggio speed;
#X text 44 339 volume control;
#X text 157 235 arpeggio;
#X text 86 259 minor to major key;
#X obj 13 119 bng 15 250 50 0 empty empty empty 17 7 0 10 -262144 -1
-1;
#X text 78 9 sad level;
#X text 53 316 synthesizer;
#X connect 0 0 17 0;
#X connect 1 0 2 0;
#X connect 2 0 0 0;
#X connect 3 0 4 0;
#X connect 3 0 5 0;
#X connect 4 0 3 1;
#X connect 5 0 6 0;
#X connect 6 0 7 0;
#X connect 6 1 8 0;
#X connect 6 2 9 0;
#X connect 6 3 10 0;
#X connect 7 0 1 0;
#X connect 8 0 14 0;
#X connect 9 0 1 0;
#X connect 10 0 1 0;
#X connect 11 0 3 0;
#X connect 12 0 11 1;
#X connect 13 0 22 0;
#X connect 14 0 1 0;
#X connect 15 0 14 1;
#X connect 16 0 0 1;
#X connect 16 0 12 0;
#X connect 16 0 15 0;
#X connect 22 0 11 0;
#X restore 15 57 pd sad;
#N canvas 393 89 888 696 happy 0;
#X obj 238 447 *~;
#X obj 175 333 mtof~;
#X obj 158 383 osc~;
#X obj 175 184 metro 100;
#X obj 175 206 f;
#X obj 205 206 + 1;
#X obj 175 228 mod 4;
#X obj 175 250 select 0 1 2 3;
#X obj 235 86 expr 200 - $f1*180;
#X obj 413 329 osc~;
#X obj 413 307 mtof~;
#X obj 238 424 +~;
#X obj 412 352 *~;
#X obj 158 359 +~;
#X obj 39 251 expr 20 - $f1*20;
#X obj 21 299 *~;
#X obj 21 276 osc~ 6;
#X obj 430 169 sub/clipscale 0.7 1 0 0.2;
#X obj 413 233 metro 300;
#X obj 451 257 delay 100;
#X obj 210 300 +;
#X obj 228 114 expr $f1-1;
#X obj 175 142 loadbang;
#X obj 413 193 loadbang;
#X obj 39 11 inlet;
#X obj 235 12 inlet;
#X text 283 12 velocity;
#X text 85 13 happy level;
#X obj 413 214 bng 15 250 50 0 empty empty empty 17 7 0 10 -262144
-1 -1;
#X obj 175 165 bng 15 250 50 0 empty empty empty 17 7 0 10 -262144
-1 -1;
#X msg 175 275 69;
#X msg 210 275 73;
#X msg 246 275 76;
#X msg 281 275 81;
#X obj 238 470 outlet~;
#X text 271 447 volume control;
#X msg 413 257 85;
#X msg 451 279 88;
#X text 524 257 small arpeggio;
#X text 445 352 volume control;
#X text 373 87 arpeggio speed;
#X text 324 276 arpeggio;
#X text 73 276 vibrato;
#X text 195 383 synthesizer;
#X text 453 329 synthesizer;
#X connect 0 0 34 0;
#X connect 1 0 13 1;
#X connect 2 0 11 0;
#X connect 3 0 4 0;
#X connect 4 0 5 0;
#X connect 4 0 6 0;
#X connect 5 0 4 1;
#X connect 6 0 7 0;
#X connect 7 0 30 0;
#X connect 7 1 31 0;
#X connect 7 2 32 0;
#X connect 7 3 33 0;
#X connect 8 0 3 1;
#X connect 9 0 12 0;
#X connect 10 0 9 0;
#X connect 11 0 0 0;
#X connect 12 0 11 1;
#X connect 13 0 2 0;
#X connect 14 0 15 1;
#X connect 15 0 13 0;
#X connect 16 0 15 0;
#X connect 17 0 12 1;
#X connect 18 0 36 0;
#X connect 18 0 19 0;
#X connect 19 0 37 0;
#X connect 20 0 1 0;
#X connect 21 0 20 1;
#X connect 22 0 29 0;
#X connect 23 0 28 0;
#X connect 24 0 17 0;
#X connect 24 0 21 0;
#X connect 24 0 0 1;
#X connect 24 0 14 0;
#X connect 25 0 8 0;
#X connect 28 0 18 0;
#X connect 29 0 3 0;
#X connect 30 0 1 0;
#X connect 31 0 20 0;
#X connect 32 0 1 0;
#X connect 33 0 1 0;
#X connect 36 0 10 0;
#X connect 37 0 10 0;
#X restore 93 57 pd happy;
#N canvas 197 251 764 603 angry 0;
#X obj -3015 -12495 *~;
#X obj -3101 -12674 mtof~;
#X obj -3101 -12641 osc~;
#X obj -3101 -12743 metro 100;
#X obj -3101 -12720 random 40;
#X obj -3101 -12698 + 40;
#X obj -3051 -12640 phasor~;
#X obj -3100 -12591 +~;
#X obj -3100 -12566 *~ 0.5;
#X obj -3052 -12617 *~;
#X obj -3041 -12806 expr 100 - $f1*30;
#X obj -2857 -12635 noise~;
#X obj -2857 -12588 *~;
#X obj -3015 -12521 +~;
#X obj -2858 -12563 +~;
#X obj -2762 -12658 *~;
#X obj -2839 -12611 * 0.2;
#X obj -2763 -12683 phasor~ 100;
#X obj -2743 -12707 sub/clipscale 0.7 1 0 1;
#X obj -3101 -12784 loadbang;
#X obj -2997 -12853 inlet;
#X text -2948 -12852 angry level;
#X obj -2839 -12853 inlet;
#X text -2792 -12851 velocity;
#X obj -3101 -12763 bng 15 250 50 0 empty empty empty 17 7 0 10 -262144
-1 -1;
#X text -2913 -12805 note speed;
#X text -3026 -12719 random note between 40 and 80;
#X text -3018 -12615 volume control;
#X text -2731 -12658 volume control;
#X text -2825 -12586 volume control;
#X text -2858 -12656 noise;
#X text -2676 -12683 low atonal note;
#X text -2984 -12495 volume control;
#X obj -3015 -12470 outlet~;
#X text -3050 -12662 synthesizer and modifier;
#X connect 0 0 33 0;
#X connect 1 0 2 0;
#X connect 1 0 6 0;
#X connect 2 0 7 0;
#X connect 3 0 4 0;
#X connect 4 0 5 0;
#X connect 5 0 1 0;
#X connect 6 0 9 0;
#X connect 7 0 8 0;
#X connect 8 0 13 0;
#X connect 9 0 7 1;
#X connect 10 0 3 1;
#X connect 11 0 12 0;
#X connect 12 0 14 0;
#X connect 13 0 0 0;
#X connect 14 0 13 1;
#X connect 15 0 14 1;
#X connect 16 0 12 1;
#X connect 17 0 15 0;
#X connect 18 0 15 1;
#X connect 19 0 24 0;
#X connect 20 0 0 1;
#X connect 20 0 9 1;
#X connect 20 0 10 0;
#X connect 22 0 16 0;
#X connect 22 0 18 0;
#X connect 24 0 3 0;
#X restore 172 57 pd angry;
#X obj 343 15 sub/lerp;
#X text 107 193 volume control;
#X msg 426 195 stop;
#X text 426 230 record sound;
#X text 183 284 play recording;
#X text 13 -143 Patch for the application Hear-My-THoughts;
#X text 13 -111 levels received here are parameterized from 0 to 1
;
#X connect 0 0 11 0;
#X connect 1 0 0 0;
#X connect 2 0 12 0;
#X connect 3 0 2 0;
#X connect 4 0 13 0;
#X connect 5 0 4 0;
#X connect 6 0 8 1;
#X connect 8 0 18 0;
#X connect 9 0 34 0;
#X connect 10 0 17 0;
#X connect 11 0 31 0;
#X connect 12 0 32 0;
#X connect 13 0 33 0;
#X connect 14 0 33 1;
#X connect 14 0 32 1;
#X connect 15 0 9 0;
#X connect 16 0 7 0;
#X connect 16 0 7 1;
#X connect 16 0 19 0;
#X connect 17 0 14 0;
#X connect 18 0 16 0;
#X connect 20 0 19 0;
#X connect 21 0 22 0;
#X connect 22 0 24 0;
#X connect 22 1 36 0;
#X connect 23 0 19 0;
#X connect 24 0 23 0;
#X connect 24 1 20 0;
#X connect 25 0 28 0;
#X connect 26 0 27 0;
#X connect 27 0 7 0;
#X connect 27 0 7 1;
#X connect 28 0 29 0;
#X connect 28 1 26 0;
#X connect 29 0 27 0;
#X connect 31 0 8 0;
#X connect 32 0 6 0;
#X connect 33 0 6 1;
#X connect 34 0 16 1;
#X connect 36 0 19 0;
